<svg width="32" height="33" viewBox="0 0 32 33" fill="none" xmlns="http://www.w3.org/2000/svg">
<path d="M16 3.15796C13.4288 3.15796 10.9154 3.9204 8.77759 5.34885C6.63975 6.77731 4.97351 8.80763 3.98957 11.1831C3.00563 13.5585 2.74819 16.1724 3.2498 18.6941C3.75141 21.2159 4.98953 23.5323 6.80762 25.3503C8.6257 27.1684 10.9421 28.4066 13.4638 28.9082C15.9856 29.4098 18.5995 29.1523 20.9749 28.1684C23.3503 27.1845 25.3807 25.5182 26.8091 23.3804C28.2376 21.2425 29 18.7291 29 16.158C28.9964 12.7113 27.6256 9.40677 25.1884 6.96959C22.7512 4.53241 19.4467 3.1616 16 3.15796ZM17 27.1117V19.158H20C20.2652 19.158 20.5196 19.0526 20.7071 18.8651C20.8946 18.6775 21 18.4232 21 18.158C21 17.8927 20.8946 17.6384 20.7071 17.4509C20.5196 17.2633 20.2652 17.158 20 17.158H17V14.158C17 13.6275 17.2107 13.1188 17.5858 12.7437C17.9609 12.3687 18.4696 12.158 19 12.158H21C21.2652 12.158 21.5196 12.0526 21.7071 11.8651C21.8946 11.6775 22 11.4232 22 11.158C22 10.8927 21.8946 10.6384 21.7071 10.4509C21.5196 10.2633 21.2652 10.158 21 10.158H19C17.9391 10.158 16.9217 10.5794 16.1716 11.3295C15.4214 12.0797 15 13.0971 15 14.158V17.158H12C11.7348 17.158 11.4804 17.2633 11.2929 17.4509C11.1054 17.6384 11 17.8927 11 18.158C11 18.4232 11.1054 18.6775 11.2929 18.8651C11.4804 19.0526 11.7348 19.158 12 19.158H15V27.1117C12.181 26.8544 9.56971 25.5202 7.7093 23.3867C5.8489 21.2531 4.8826 18.4845 5.0114 15.6567C5.1402 12.8289 6.35419 10.1597 8.40085 8.20409C10.4475 6.24853 13.1693 5.15726 16 5.15726C18.8307 5.15726 21.5525 6.24853 23.5992 8.20409C25.6458 10.1597 26.8598 12.8289 26.9886 15.6567C27.1174 18.4845 26.1511 21.2531 24.2907 23.3867C22.4303 25.5202 19.819 26.8544 17 27.1117Z" fill="#737373"/>
</svg>
