<svg width="22" height="22" viewBox="0 0 22 22" fill="none" xmlns="http://www.w3.org/2000/svg">
<path d="M5.99997 6.6582L8.94199 8.39763C10.6572 9.4117 11.3428 9.4117 13.058 8.39763L16 6.6582" stroke="#F58774" stroke-width="2" stroke-linecap="round" stroke-linejoin="round"/>
<path d="M9.5 18.6582C9.0337 18.6521 8.56682 18.6432 8.09883 18.6314C4.95033 18.5523 3.37608 18.5127 2.24496 17.3766C1.11383 16.2405 1.08114 14.7069 1.01577 11.6396C0.99475 10.6533 0.99474 9.6729 1.01576 8.68663C1.08114 5.61933 1.11382 4.08568 2.24495 2.94959C3.37608 1.8135 4.95033 1.77393 8.09882 1.69478C10.0393 1.646 11.9607 1.64601 13.9012 1.69479C17.0497 1.77394 18.6239 1.81352 19.755 2.94961C20.8862 4.08569 20.9189 5.61934 20.9842 8.68664C20.9939 9.14071 20.9991 9.3547 20.9999 9.6582" stroke="#F58774" stroke-width="2" stroke-linecap="round" stroke-linejoin="round"/>
<path d="M17.9998 16.1582C17.9998 16.9866 17.3282 17.6582 16.4998 17.6582C15.6714 17.6582 14.9998 16.9866 14.9998 16.1582C14.9998 15.3298 15.6714 14.6582 16.4998 14.6582C17.3282 14.6582 17.9998 15.3298 17.9998 16.1582ZM17.9998 16.1582V16.6582C17.9998 17.4866 18.6714 18.1582 19.4998 18.1582C20.3282 18.1582 20.9998 17.4866 20.9998 16.6582V16.1582C20.9998 13.6729 18.9851 11.6582 16.4998 11.6582C14.0145 11.6582 11.9998 13.6729 11.9998 16.1582C11.9998 18.6435 14.0145 20.6582 16.4998 20.6582" stroke="#F58774" stroke-width="2" stroke-linecap="round" stroke-linejoin="round"/>
</svg>
