<svg width="20" height="20" viewBox="0 0 20 20" fill="none" xmlns="http://www.w3.org/2000/svg">
<path d="M18.1526 19.158V6.09437C18.1526 5.1066 18.1526 4.61272 17.8686 4.19592C17.5846 3.77912 17.0614 3.50516 16.0152 2.95725L14.6839 2.26011C13.0414 1.4 12.2201 0.96995 11.5864 1.23637C10.9526 1.50279 10.9526 2.27809 10.9526 3.82867V7.45796" stroke="#F58774" stroke-width="1.5" stroke-linejoin="round"/>
<path d="M19.0526 19.158H1.05261" stroke="#F58774" stroke-width="1.5" stroke-linecap="round" stroke-linejoin="round"/>
<path d="M18.1526 6.55786H16.3526M18.1526 9.25786H16.3526M18.1526 11.9579H16.3526" stroke="#F58774" stroke-width="1.5" stroke-linecap="round" stroke-linejoin="round"/>
<path d="M6.45258 11.0579C6.45258 9.36085 6.45258 8.51233 6.97979 7.9851C7.50699 7.45789 8.35554 7.45789 10.0526 7.45789C11.7496 7.45789 12.5981 7.45789 13.1254 7.9851C13.6526 8.51233 13.6526 9.36085 13.6526 11.0579V19.1579H6.45258V11.0579Z" stroke="#F58774" stroke-width="1.5" stroke-linejoin="round"/>
<path d="M9.60263 11.0579H10.5026M9.60263 13.7579H10.5026" stroke="#F58774" stroke-width="1.5" stroke-linecap="round"/>
<path d="M2.40261 13.758C3.1482 13.758 3.75261 12.9521 3.75261 11.958C3.75261 10.9638 3.1482 10.158 2.40261 10.158C1.65703 10.158 1.05261 10.9638 1.05261 11.958C1.05261 12.9521 1.65703 13.758 2.40261 13.758Z" stroke="#F58774" stroke-width="1.5"/>
<path d="M2.40265 13.7581V19.1581" stroke="#F58774" stroke-width="1.5" stroke-linecap="round"/>
</svg>
