<svg width="32" height="33" viewBox="0 0 32 33" fill="none" xmlns="http://www.w3.org/2000/svg">
<path d="M22 9.30082H23.7143M10.8571 4.15796H21.1429C22.9615 4.15796 24.7056 4.88041 25.9916 6.16637C27.2776 7.45233 28 9.19647 28 11.0151V21.3008C28 23.1194 27.2776 24.8636 25.9916 26.1495C24.7056 27.4355 22.9615 28.158 21.1429 28.158H10.8571C9.03852 28.158 7.29437 27.4355 6.00841 26.1495C4.72245 24.8636 4 23.1194 4 21.3008V11.0151C4 9.19647 4.72245 7.45233 6.00841 6.16637C7.29437 4.88041 9.03852 4.15796 10.8571 4.15796ZM16 21.3008C14.636 21.3008 13.3279 20.759 12.3635 19.7945C11.399 18.83 10.8571 17.5219 10.8571 16.158C10.8571 14.794 11.399 13.4859 12.3635 12.5214C13.3279 11.5569 14.636 11.0151 16 11.0151C17.364 11.0151 18.6721 11.5569 19.6365 12.5214C20.601 13.4859 21.1429 14.794 21.1429 16.158C21.1429 17.5219 20.601 18.83 19.6365 19.7945C18.6721 20.759 17.364 21.3008 16 21.3008Z" stroke="#737373" stroke-width="1.5"/>
</svg>
