<svg width="32" height="33" viewBox="0 0 32 33" fill="none" xmlns="http://www.w3.org/2000/svg">
<path d="M10.8571 13.5865V22.158M21.1429 22.158V17.8722C21.1429 16.9629 20.7816 16.0909 20.1387 15.4479C19.4957 14.8049 18.6236 14.4437 17.7143 14.4437C16.805 14.4437 15.9329 14.8049 15.2899 15.4479C14.6469 16.0909 14.2857 16.9629 14.2857 17.8722V22.158V13.5865M10 11.0151H11.7143M5.71429 4.15796H26.2857C26.7404 4.15796 27.1764 4.33857 27.4979 4.66006C27.8194 4.98155 28 5.41759 28 5.87224V26.4437C28 26.8983 27.8194 27.3344 27.4979 27.6559C27.1764 27.9773 26.7404 28.158 26.2857 28.158H5.71429C5.25963 28.158 4.82359 27.9773 4.5021 27.6559C4.18061 27.3344 4 26.8983 4 26.4437V5.87224C4 5.41759 4.18061 4.98155 4.5021 4.66006C4.82359 4.33857 5.25963 4.15796 5.71429 4.15796Z" stroke="#737373" stroke-width="1.5"/>
</svg>
