<svg width="126" height="56" viewBox="0 0 126 56" fill="none" xmlns="http://www.w3.org/2000/svg">
<g clip-path="url(#clip0_68_4)">
<path d="M5.04789 51.0343C6.1265 50.7098 6.94624 49.9873 6.94624 48.824C6.94624 47.2014 5.36223 46.4299 3.70425 46.4299H0V55.8714H3.74123C5.46084 55.8714 7.09416 55.0632 7.09416 53.3672C7.09416 52.1181 6.21279 51.3589 5.04789 51.0343ZM0.819743 47.03H3.66727C5.27594 47.03 6.11417 47.93 6.11417 48.8852C6.11417 49.8404 5.26361 50.7466 3.65494 50.7466H0.825906V47.03H0.819743ZM3.69192 55.2714H0.825906V51.3282H3.6796C5.36223 51.3282 6.2436 52.2895 6.25593 53.2998C6.25593 54.3223 5.37455 55.2714 3.69192 55.2714Z" fill="#F58774"/>
<path d="M17.8371 50.5996L17.8248 50.8139C17.3255 49.6934 16.3209 48.9709 15.0019 48.9709C13.1282 48.9709 11.84 50.4282 11.84 52.4732C11.84 54.5183 13.0851 55.9878 15.0019 55.9878C16.3085 55.9878 17.3255 55.2653 17.8248 54.1448L17.8371 54.4571V55.8653H18.5644V49.1179H17.8371V50.5996ZM17.7631 52.5712C17.7261 54.1325 16.7585 55.3877 15.2176 55.3877C13.6767 55.3877 12.6844 54.1142 12.6844 52.4794C12.6844 50.8446 13.6521 49.5832 15.2176 49.5832C16.7831 49.5832 17.7261 50.7956 17.7631 52.3875V52.5773V52.5712Z" fill="#F58774"/>
<path d="M29.7696 50.6977C29.2519 49.6629 28.278 48.9894 27.0084 48.9894C25.1347 48.9894 23.8465 50.4466 23.8465 52.4917C23.8465 54.5367 25.0915 56.0062 27.0084 56.0062C28.278 56.0062 29.2704 55.3204 29.7819 54.2489L30.01 55.8715H30.5524V46.2524H29.7634V50.7038L29.7696 50.6977ZM29.7696 52.755C29.671 54.2367 28.7156 55.4 27.2241 55.4C25.7325 55.4 24.6909 54.1265 24.6909 52.4917C24.6909 50.8569 25.6586 49.5955 27.2241 49.5955C28.6787 49.5955 29.6587 50.7283 29.7696 52.2406V52.755Z" fill="#F58774"/>
<path d="M41.8439 50.5996L41.8315 50.8139C41.3323 49.6934 40.3277 48.9709 39.0087 48.9709C37.135 48.9709 35.8468 50.4282 35.8468 52.4732C35.8468 54.5183 37.0918 55.9878 39.0087 55.9878C40.3153 55.9878 41.3323 55.2653 41.8315 54.1448L41.8439 54.4571V55.8653H42.5712V49.1179H41.8439V50.5996ZM41.7699 52.5712C41.7329 54.1325 40.7653 55.3877 39.2244 55.3877C37.6835 55.3877 36.6912 54.1142 36.6912 52.4794C36.6912 50.8446 37.6589 49.5832 39.2244 49.5832C40.7899 49.5832 41.7329 50.7956 41.7699 52.3875V52.5773V52.5712Z" fill="#F58774"/>
<path d="M49.2092 46.2463H48.408V55.8654H49.2092V46.2463Z" fill="#F58774"/>
<path d="M60.4884 50.5996L60.4761 50.8139C59.9768 49.6934 58.9722 48.9709 57.6532 48.9709C55.7795 48.9709 54.4913 50.4282 54.4913 52.4732C54.4913 54.5183 55.7364 55.9878 57.6532 55.9878C58.9599 55.9878 59.9768 55.2653 60.4761 54.1448L60.4884 54.4571V55.8653H61.2157V49.1179H60.4884V50.5996ZM60.4144 52.5712C60.3775 54.1325 59.4098 55.3877 57.8689 55.3877C56.328 55.3877 55.3357 54.1142 55.3357 52.4794C55.3357 50.8446 56.3034 49.5832 57.8689 49.5832C59.4344 49.5832 60.3775 50.7956 60.4144 52.3875V52.5773V52.5712Z" fill="#F58774"/>
<path d="M70.5842 48.9894C69.2898 48.9894 68.2975 49.7731 67.8476 50.912V46.2463H67.0463V55.8654H67.8476V52.9081C67.8969 51.1018 68.7783 49.6629 70.3684 49.6629C71.6135 49.6629 72.3654 50.5385 72.3654 52.1794V55.8715H73.1667V51.9651C73.1667 50.0548 72.1127 48.9955 70.5903 48.9955" fill="#F58774"/>
<path d="M9.6027 8.68839C12.0373 8.68839 14.0096 6.72906 14.0096 4.37787C14.0096 2.02668 12.0373 0 9.6027 0C7.16813 0 5.26361 1.95933 5.26361 4.37787C5.26361 6.79641 7.23592 8.68839 9.6027 8.68839Z" fill="#F58774"/>
<path d="M37.024 41.6112H55.0399V0.851074H44.1921V34.429H33.4061V12.0192H22.5583V14.8296H15.5196C6.77366 14.8296 0 19.728 0 28.4837C0 36.5843 5.8553 41.6112 14.2685 41.6112C18.2809 41.6112 21.7016 40.5029 24.0684 38.2803C25.5784 40.3682 28.013 41.6112 31.0393 41.6112H37.024ZM22.5583 28.7409C22.5583 32.3962 19.9265 34.3617 16.3764 34.3617C12.8262 34.3617 10.5211 32.335 10.4594 28.7409C10.3916 24.5589 13.4857 22.0792 17.8926 22.0792H22.5645V28.7409H22.5583Z" fill="#F58774"/>
<path d="M19.4643 8.68839C21.831 8.68839 23.8033 6.72906 23.8033 4.37787C23.8033 2.02668 21.831 0 19.4643 0C17.0975 0 15.0574 1.95933 15.0574 4.37787C15.0574 6.79641 17.0297 8.68839 19.4643 8.68839Z" fill="#F58774"/>
<path d="M73.3269 0.851074H63.3298V41.6173H73.3269V0.851074Z" fill="#F58774"/>
<path d="M115.146 17.1135V34.4229H105.285V25.0794C105.285 17.3707 99.6943 12.7969 91.9345 12.7969C88.4521 12.7969 85.2902 13.3173 81.8757 14.0398V20.5056L82.2701 20.8975C84.3102 20.377 86.147 19.9178 88.2549 19.9178C91.805 19.9178 94.4368 21.7485 94.4368 25.3427V34.4229H78.3933V41.6112H126.006V17.1135H115.158H115.146Z" fill="#F58774"/>
</g>
<defs>
<clipPath id="clip0_68_4">
<rect width="126" height="56" fill="white"/>
</clipPath>
</defs>
</svg>
