<svg width="21" height="20" viewBox="0 0 21 20" fill="none" xmlns="http://www.w3.org/2000/svg">
<path d="M5.78946 5.89478L8.57664 7.54266C10.2015 8.50335 10.8511 8.50335 12.476 7.54266L15.2631 5.89478" stroke="#F58774" stroke-width="1.5" stroke-linecap="round" stroke-linejoin="round"/>
<path d="M9.10524 17.2632C8.66349 17.2574 8.22118 17.249 7.77782 17.2378C4.79503 17.1629 3.30364 17.1254 2.23205 16.0491C1.16045 14.9728 1.12948 13.5199 1.06755 10.614C1.04764 9.67963 1.04763 8.75083 1.06754 7.81647C1.12948 4.91061 1.16044 3.45768 2.23204 2.38138C3.30364 1.30509 4.79503 1.2676 7.77781 1.19261C9.61616 1.1464 11.4364 1.14641 13.2748 1.19262C16.2576 1.26761 17.7489 1.3051 18.8205 2.3814C19.8922 3.45769 19.9231 4.91062 19.985 7.81648C19.9942 8.24665 19.9991 8.44938 19.9999 8.73691" stroke="#F58774" stroke-width="1.5" stroke-linecap="round" stroke-linejoin="round"/>
<path d="M17.1578 14.8947C17.1578 15.6795 16.5216 16.3158 15.7368 16.3158C14.952 16.3158 14.3157 15.6795 14.3157 14.8947C14.3157 14.1099 14.952 13.4737 15.7368 13.4737C16.5216 13.4737 17.1578 14.1099 17.1578 14.8947ZM17.1578 14.8947V15.3684C17.1578 16.1532 17.7941 16.7895 18.5789 16.7895C19.3637 16.7895 19.9999 16.1532 19.9999 15.3684V14.8947C19.9999 12.5403 18.0913 10.6316 15.7368 10.6316C13.3823 10.6316 11.4736 12.5403 11.4736 14.8947C11.4736 17.2492 13.3823 19.1579 15.7368 19.1579" stroke="#F58774" stroke-width="1.5" stroke-linecap="round" stroke-linejoin="round"/>
</svg>
