<svg width="20" height="20" viewBox="0 0 20 20" fill="none" xmlns="http://www.w3.org/2000/svg">
<path d="M11.8 11.8767L14.05 14.1267" stroke="#737373" stroke-width="1.5" stroke-linejoin="round"/>
<path d="M13.99 15.9493C13.47 15.4294 13.47 14.5864 13.99 14.0666C14.5098 13.5467 15.3527 13.5467 15.8727 14.0666L18.61 16.8039C19.13 17.3239 19.13 18.1668 18.61 18.6867C18.0902 19.2066 17.2472 19.2066 16.7273 18.6867L13.99 15.9493Z" stroke="#737373" stroke-width="1.5" stroke-linecap="round"/>
<path d="M13.6 7.37668C13.6 3.89728 10.7794 1.07666 7.30002 1.07666C3.82062 1.07666 1 3.89728 1 7.37668C1 10.8561 3.82062 13.6767 7.30002 13.6767C10.7794 13.6767 13.6 10.8561 13.6 7.37668Z" stroke="#737373" stroke-width="1.5" stroke-linejoin="round"/>
</svg>
