<svg width="32" height="32" viewBox="0 0 32 32" fill="none" xmlns="http://www.w3.org/2000/svg">
<path d="M28 8.5L26.2322 15.9433C25.9096 17.3014 24.7093 18.25 23.3134 18.25H12.583L13.0052 20.0095C13.1672 20.6847 13.7655 21.1562 14.4598 21.1562H25.0938V22.6562H14.4598C13.0691 22.6562 11.8712 21.7118 11.5466 20.3596L8.25569 6.64684C8.09359 5.97156 7.49547 5.5 6.80106 5.5H4V4H6.80106C8.19166 4 9.38969 4.94444 9.71425 6.29678L10.243 8.5H28ZM12.8733 25.8438C12.8733 27.0347 13.8387 28 15.0296 28C16.2205 28 17.1858 27.0347 17.1858 25.8438C17.1858 24.6528 16.2205 23.6875 15.0296 23.6875C13.8387 23.6875 12.8733 24.6528 12.8733 25.8438ZM20.7483 25.8438C20.7483 27.0347 21.7137 28 22.9046 28C24.0955 28 25.0608 27.0347 25.0608 25.8438C25.0608 24.6528 24.0955 23.6875 22.9046 23.6875C21.7137 23.6875 20.7483 24.6528 20.7483 25.8438Z" fill="#404040"/>
</svg>
