<svg width="32" height="32" viewBox="0 0 32 32" fill="none" xmlns="http://www.w3.org/2000/svg">
<path d="M26 24.8C26 25.3835 25.7659 25.9431 25.3491 26.3556C24.9324 26.7682 24.3671 27 23.7778 27H8.22222C7.63285 27 7.06762 26.7682 6.65087 26.3556C6.23413 25.9431 6 25.3835 6 24.8C6 23.0496 6.70238 21.3708 7.95262 20.1331C9.20286 18.8954 10.8986 18.2 12.6667 18.2H19.3333C21.1014 18.2 22.7971 18.8954 24.0474 20.1331C25.2976 21.3708 26 23.0496 26 24.8ZM16 16C17.0988 16 18.1729 15.6774 19.0865 15.0731C20.0001 14.4687 20.7122 13.6098 21.1327 12.6048C21.5532 11.5998 21.6632 10.4939 21.4488 9.42701C21.2344 8.36011 20.7053 7.3801 19.9284 6.61092C19.1514 5.84173 18.1615 5.3179 17.0838 5.10568C16.0062 4.89346 14.8891 5.00238 13.874 5.41867C12.8588 5.83495 11.9912 6.5399 11.3807 7.44437C10.7703 8.34884 10.4444 9.41221 10.4444 10.5C10.4444 11.9587 11.0298 13.3576 12.0716 14.3891C13.1135 15.4205 14.5266 16 16 16Z" fill="#404040"/>
</svg>
